<svg xmlns="http://www.w3.org/2000/svg" viewBox="0 0 100 100"><path class="st0" d="M73 30.5H28c-0.8 0-1.5 0.7-1.5 1.5v36c0 0.8 0.7 1.5 1.5 1.5h45c0.8 0 1.5-0.7 1.5-1.5V32C74.5 31.2 73.8 30.5 73 30.5zM71.5 66.5h-42V44.2h42V66.5zM71.5 41.2h-42v-7.7h42V41.2zM34.3 38.8c0.8 0 1.4-0.6 1.4-1.4 0-0.8-0.6-1.4-1.4-1.4 -0.8 0-1.4 0.6-1.4 1.4C33 38.1 33.6 38.8 34.3 38.8zM39.7 38.8c0.8 0 1.4-0.6 1.4-1.4 0-0.8-0.6-1.4-1.4-1.4 -0.8 0-1.4 0.6-1.4 1.4C38.3 38.1 38.9 38.8 39.7 38.8zM45 38.8c0.8 0 1.4-0.6 1.4-1.4 0-0.8-0.6-1.4-1.4-1.4 -0.8 0-1.4 0.6-1.4 1.4C43.7 38.1 44.3 38.8 45 38.8z"/></svg>