<svg xmlns="http://www.w3.org/2000/svg" viewBox="0 0 100 100"><path class="st0" d="M69.4 32.5c0.3-1.1-0.8-2.2-1.8-1.8l-12.1 3.8c0 0 0 0 0 0l0 0c0 0 0 0 0 0 -0.1 0-0.1 0.1-0.2 0.1 0 0 0 0 0 0 0 0-0.1 0-0.1 0.1 -0.1 0-0.1 0.1-0.2 0.1 0 0 0 0 0 0l-19 19c0 0 0 0 0 0s0 0 0 0L31 58.6c-0.6 0.6-0.6 1.5 0 2.1l8.3 8.3c0.6 0.6 1.5 0.6 2.1 0l4.7-4.7c0 0 0 0 0 0s0 0 0 0l19-19c0 0 0 0 0 0 0.1-0.1 0.1-0.1 0.1-0.2 0 0 0-0.1 0.1-0.1 0 0 0 0 0 0 0-0.1 0.1-0.1 0.1-0.2 0 0 0 0 0 0l0 0c0 0 0 0 0 0L69.4 32.5zM63.2 42.1l-3.5-1.8 -1.8-3.5 7.8-2.4L63.2 42.1zM45.2 61.1l-6.2-6.2 16.5-16.5 1.9 3.7c0.1 0.1 0.2 0.3 0.3 0.4 0.1 0.1 0.2 0.2 0.4 0.3l3.7 1.9L45.2 61.1zM40.4 65.8l-6.2-6.2 2.6-2.6 6.2 6.2L40.4 65.8z"/></svg>