<svg xmlns="http://www.w3.org/2000/svg" width="24" height="24" viewBox="0 0 24 24"><path d="M17.033 6.966a1.492 1.492 0 0 1 0 2.112l-7.955 7.956a1.494 1.494 0 0 1-2.112-2.112l7.956-7.956a1.493 1.493 0 0 1 2.111 0zM7.895 20.352a3.008 3.008 0 0 1-4.248 0 3.008 3.008 0 0 1 0-4.248l5.639-5.632A5.77 5.77 0 0 0 3.837 12L1.69 14.147a5.772 5.772 0 0 0 8.163 8.163L12 20.162a5.769 5.769 0 0 0 1.527-5.448l-5.632 5.638zM14.146 1.69L12 3.838a5.761 5.761 0 0 0-1.53 5.445l5.634-5.635a3.008 3.008 0 0 1 4.248 0 3.006 3.006 0 0 1 0 4.248l-5.635 5.635a5.765 5.765 0 0 0 5.445-1.53l2.146-2.147a5.772 5.772 0 0 0-8.162-8.164z"/></svg>